<svg xmlns="http://www.w3.org/2000/svg" enable-background="new 0 0 64 64" viewBox="0 0 64 64"><polygon fill="#fe9526" points="46 56 18 56 21.64 51 22.37 50 26 45 39 45 42.18 50 42.82 51" class="color778ca3 svgShape"></polygon><polygon fill="#4b4c84" points="33 50 39 50 42.18 55 42.82 56 46 56 42.82 51 42.18 50 39 45 26 45 22.37 50 26 50" class="color4b6584 svgShape"></polygon><path fill="#4b4eec" d="M61,8v38c0,1.1-0.9,2-2,2H5c-1.1,0-2-0.9-2-2V8c0-1.1,0.9-2,2-2h54C60.1,6,61,6.9,61,8z" class="color4b7bec svgShape"></path><path fill="#a5a5c2" d="M61,8v38c0,1.1-0.9,2-2,2H5c-0.35,0-0.68-0.09-0.96-0.25c-0.33-0.18-0.61-0.46-0.79-0.79
		C3.09,46.68,3,46.35,3,46V8c0-1.1,0.9-2,2-2h54c0.35,0,0.68,0.09,0.96,0.25c0.33,0.18,0.61,0.46,0.79,0.79C60.91,7.32,61,7.65,61,8
		z" class="colora5b1c2 svgShape"></path><path fill="#53d86a" d="M59.96,6.25C59.86,6.68,59.46,7,59,7H5C4.45,7,4,7.45,4,8v38c0,0.46-0.32,0.86-0.75,0.96
		C3.09,46.68,3,46.35,3,46V8c0-1.1,0.9-2,2-2h54C59.35,6,59.68,6.09,59.96,6.25z" class="colord1d8e0 svgShape"></path><path fill="#6f6f82" d="M61,8v38c0,1.1-0.9,2-2,2H5c-0.35,0-0.68-0.09-0.96-0.25C4.14,47.32,4.54,47,5,47h54c0.55,0,1-0.45,1-1V8
		c0-0.46,0.32-0.86,0.75-0.96C60.91,7.32,61,7.65,61,8z" class="color6f7782 svgShape"></path><path fill="#595bd4" d="M59,10v28c0,1.1-0.9,2-2,2H7c-0.36,0-0.71-0.1-1-0.27C5.4,39.38,5,38.74,5,38V10c0-1.1,0.9-2,2-2h50
		c0.74,0,1.38,0.4,1.73,1C58.9,9.29,59,9.64,59,10z" class="color3867d6 svgShape"></path><path fill="#a5a5c2" d="M49,56c0,0.55-0.22,1.05-0.59,1.41C48.05,57.78,47.55,58,47,58H17c-0.35,0-0.68-0.09-0.96-0.25
		c-0.33-0.18-0.61-0.46-0.79-0.79C15.09,56.68,15,56.35,15,56c0-0.55,0.22-1.05,0.59-1.41C15.95,54.22,16.45,54,17,54h30
		c0.35,0,0.68,0.09,0.96,0.25c0.33,0.18,0.61,0.46,0.79,0.79C48.91,55.32,49,55.65,49,56z" class="colora5b1c2 svgShape"></path><path fill="#6f6f82" d="M49,56c0,0.55-0.22,1.05-0.59,1.41C48.05,57.78,47.55,58,47,58H17c-0.35,0-0.68-0.09-0.96-0.25
		C16.14,57.32,16.54,57,17,57h30c0.55,0,1-0.45,1-1c0-0.46,0.32-0.86,0.75-0.96C48.91,55.32,49,55.65,49,56z" class="color6f7782 svgShape"></path><path fill="#53d86a" d="M47.96,54.25C47.86,54.68,47.46,55,47,55H17c-0.55,0-1,0.45-1,1c0,0.46-0.32,0.86-0.75,0.96
		C15.09,56.68,15,56.35,15,56c0-0.55,0.22-1.05,0.59-1.41C15.95,54.22,16.45,54,17,54h30C47.35,54,47.68,54.09,47.96,54.25z" class="colord1d8e0 svgShape"></path><path fill="#6f6f82" d="M31,44.5v-1c0-0.276,0.224-0.5,0.5-0.5h1c0.276,0,0.5,0.224,0.5,0.5v1c0,0.276-0.224,0.5-0.5,0.5h-1
		C31.224,45,31,44.776,31,44.5z" class="color6f7782 svgShape"></path><path fill="#a9aaed" d="M45.792,23.389C41.898,18.348,37.516,16,32,16s-9.898,2.348-13.792,7.389c-0.278,0.36-0.278,0.862,0,1.223
		C22.102,29.652,26.484,32,32,32s9.898-2.348,13.792-7.389C46.069,24.251,46.069,23.749,45.792,23.389z" class="colora9d2ed svgShape"></path><circle cx="32" cy="24" r="4" fill="#167ffc" class="color36a0e8 svgShape"></circle></svg>